<svg xmlns="http://www.w3.org/2000/svg" width="82" height="27" viewBox="0 0 100 30" class="css-wzx7q2">
<g fill="none" fill-rule="evenodd">
<path fill="#2C2D2F" fill-rule="nonzero" d="M30.673 12.747c.002-7.59-4.555-10.88-9.737-12.04V.316c9.426.494 16.33 6.229 16.328 12.79-.002 7.493-8.127 12.836-18.148 12.829S1.018 20.172 1.021 13.08C1.023 5.64 8.08.268 20.11.276l-.004 9.243-2.844-.058c-6.093.21-13.15 2.863-13.151 6.433-.002 3.927 6.696 8.652 14.74 8.658 6.504.004 11.818-4.712 11.82-11.805"></path>
<path stroke="#2C2D2F" stroke-width="0.144" d="M30.673 12.747c.002-7.59-4.555-10.88-9.737-12.04V.316c9.426.494 16.33 6.229 16.328 12.79-.002 7.493-8.127 12.836-18.148 12.829S1.018 20.172 1.021 13.08C1.023 5.64 8.08.268 20.11.276l-.004 9.243-2.844-.058c-6.093.21-13.15 2.863-13.151 6.433-.002 3.927 6.696 8.652 14.74 8.658 6.504.004 11.818-4.712 11.82-11.805Z"></path>
<path fill="#2C2D2F" fill-rule="nonzero" d="M20.049 23.49c-3.453-.249-7.892-2.553-7.89-6.52.001-3.926 3.784-6.77 7.895-6.924z"></path><path stroke="#2C2D2F" stroke-width="0.144" d="M20.049 23.49c-3.453-.249-7.892-2.553-7.89-6.52.001-3.926 3.784-6.77 7.895-6.924z"></path>
<path fill="#2C2D2F" fill-rule="nonzero" d="m73.928 5.652-.181 1.021c-.472-.158-4.98-1.214-5.046 2.14-.052 2.685 4.05 2.356 4.99 2.106l.104 1.113c-3.083.861-7.18-.08-7.263-3.247-.096-3.653 5.322-4.104 7.396-3.133"></path>
<path stroke="#2C2D2F" stroke-width="0.144" d="m73.928 5.652-.181 1.021c-.472-.158-4.98-1.214-5.046 2.14-.052 2.685 4.05 2.356 4.99 2.106l.104 1.113c-3.083.861-7.18-.08-7.263-3.247-.096-3.653 5.322-4.104 7.396-3.133Z"></path>
<path fill="#2C2D2F" fill-rule="nonzero" d="m77.114 12.218.002-5.753-2.77-.002V5.365l7.447.006v1.098l-2.718-.002-.002 5.752z"></path>
<path stroke="#2C2D2F" stroke-width="0.144" d="m77.114 12.218.002-5.753-2.77-.002V5.365l7.447.006v1.098l-2.718-.002-.002 5.752z"></path>
<path fill="#2C2D2F" fill-rule="nonzero" d="m60.504 5.305 5.492.004v1.148l-3.659-.002-.002 5.7-1.833-.002z"></path>
<path stroke="#2C2D2F" stroke-width="0.144" d="m60.504 5.305 5.492.004v1.148l-3.659-.002-.002 5.7-1.833-.002z"></path>
<path fill="#2C2D2F" fill-rule="nonzero" d="m62.164 8.192 3.616.002v1.149l-3.616-.003z"></path>
<path stroke="#2C2D2F" stroke-width="0.144" d="m62.164 8.192 3.616.002v1.149l-3.616-.003z"></path>
<path fill="#2C2D2F" fill-rule="nonzero" d="m62.163 11.006 3.802.003v1.148l-3.802-.003z"></path>
<path stroke="#2C2D2F" stroke-width="0.144" d="m62.163 11.006 3.802.003v1.148l-3.802-.003z"></path>
<path fill="#2C2D2F" fill-rule="nonzero" d="m48.216 12.13.002-6.82 2.052.002-.003 6.82z"></path>
<path stroke="#2C2D2F" stroke-width="0.144" d="m48.216 12.13.002-6.82 2.052.002-.003 6.82z"></path>
<path fill="#2C2D2F" fill-rule="nonzero" d="m38.788 12.181.003-6.82 2.052.002-.003 6.82z"></path>
<path stroke="#2C2D2F" stroke-width="0.144" d="m38.788 12.181.003-6.82 2.052.002-.003 6.82z"></path>
<path fill="#2C2D2F" fill-rule="nonzero" d="m40.151 12.182.417-1.105 1.535-.042c1.78.001 2.856-.989 2.857-2.295 0-1.58-1.434-2.327-2.54-2.328l-1.865-.102-.258-.947 2.167.001c2.492.002 4.649 1.338 4.648 3.442 0 2.118-2.158 3.38-4.65 3.378z"></path>
<path stroke="#2C2D2F" stroke-width="0.144" d="m40.151 12.182.417-1.105 1.535-.042c1.78.001 2.856-.989 2.857-2.295 0-1.58-1.434-2.327-2.54-2.328l-1.865-.102-.258-.947 2.167.001c2.492.002 4.649 1.338 4.648 3.442 0 2.118-2.158 3.38-4.65 3.378z"></path>
<path fill="#2C2D2F" fill-rule="nonzero" d="m38.785 20.75.003-6.82 2.052.001-.003 6.82z"></path>
<path stroke="#2C2D2F" stroke-width="0.144" d="m38.785 20.75.003-6.82 2.052.001-.003 6.82z"></path>
<path fill="#2C2D2F" fill-rule="nonzero" d="m40.149 20.75.416-1.105 1.535-.042c1.78.002 2.856-.988 2.856-2.295.001-1.579-1.434-2.327-2.538-2.328l-1.865-.101-.259-.948 2.167.002c2.492.001 4.649 1.338 4.648 3.441 0 2.118-2.158 3.38-4.65 3.378z"></path>
<path stroke="#2C2D2F" stroke-width="0.144" d="m40.149 20.75.416-1.105 1.535-.042c1.78.002 2.856-.988 2.856-2.295.001-1.579-1.434-2.327-2.538-2.328l-1.865-.101-.259-.948 2.167.002c2.492.001 4.649 1.338 4.648 3.441 0 2.118-2.158 3.38-4.65 3.378z"></path>
<path fill="#2C2D2F" fill-rule="nonzero" d="m59.52 20.796.002-7.394h1.98l-.002 7.395z"></path>
<path stroke="#2C2D2F" stroke-width="0.144" d="m59.52 20.796.002-7.394h1.98l-.002 7.395z"></path>
<path fill="#2C2D2F" fill-rule="nonzero" d="m70.467 20.86.002-5.068 1.98.002-.001 5.068z"></path>
<path stroke="#2C2D2F" stroke-width="0.144" d="m70.467 20.86.002-5.068 1.98.002-.001 5.068z"></path>
<path fill="#2C2D2F" fill-rule="nonzero" d="M70.47 13.424h1.98v1.307h-1.98z"></path>
<path stroke="#2C2D2F" stroke-width="0.144" d="M70.47 13.424h1.98v1.307h-1.98z"></path>
<path fill="#2C2D2F" fill-rule="nonzero" d="m77.155 19.53.002-5.04 2.023.002-.002 4.81c0 .646 1.105.848 1.736.633v1.12c-1.364.315-3.76.27-3.76-1.525"></path>
<path stroke="#2C2D2F" stroke-width="0.144" d="m77.155 19.53.002-5.04 2.023.002-.002 4.81c0 .646 1.105.848 1.736.633v1.12c-1.364.315-3.76.27-3.76-1.525Z"></path>
<path fill="#2C2D2F" fill-rule="nonzero" d="M75.577 16.873v-1.077l5.281.004v1.077z"></path>
<path stroke="#2C2D2F" stroke-width="0.144" d="M75.577 16.873v-1.077l5.281.004v1.077z"></path>
<path fill="#2C2D2F" fill-rule="nonzero" d="m51.4 17.619 3.185-.006c-.086-.769-.66-1.2-1.521-1.2-.933-.001-1.636.357-1.665 1.206m-.015.945c.1 1.967 4.06 1.266 4.59.707v1.192c-.789.373-1.806.415-2.934.414-2.057-.002-3.723-1.05-3.723-2.76.001-1.521 1.537-2.726 3.725-2.724 1.686.001 3.551.792 3.42 3.175z"></path>
<path stroke="#2C2D2F" stroke-width="0.144" d="m51.4 17.619 3.185-.006c-.086-.769-.66-1.2-1.521-1.2-.933-.001-1.636.357-1.665 1.206Zm-.015.945c.1 1.967 4.06 1.266 4.59.707v1.192c-.789.373-1.806.415-2.934.414-2.057-.002-3.723-1.05-3.723-2.76.001-1.521 1.537-2.726 3.725-2.724 1.686.001 3.551.792 3.42 3.175z"></path>
<path fill="#2C2D2F" fill-rule="nonzero" d="M54.043 8.258h1.334c.531.001 1.292-.343 1.292-.91 0-.624-.629-.926-1.262-.927h-1.364zm4.678-1.145c0 1.622-1.528 1.744-1.608 1.75.244.158.462.472.473.489l1.572 2.8-2.141-.002-1.081-2.039c-.015-.035-.287-.703-1.121-.69h-.759v2.728l-2.034-.002.002-6.848 3.678.003c1.029 0 3.02.26 3.019 1.81"></path>
<path stroke="#2C2D2F" stroke-width="0.144" d="M54.043 8.258h1.334c.531.001 1.292-.343 1.292-.91 0-.624-.629-.926-1.262-.927h-1.364zm4.678-1.145c0 1.622-1.528 1.744-1.608 1.75.244.158.462.472.473.489l1.572 2.8-2.141-.002-1.081-2.039c-.015-.035-.287-.703-1.121-.69h-.759v2.728l-2.034-.002.002-6.848 3.678.003c1.029 0 3.02.26 3.019 1.81Z"></path>
<path fill="#2C2D2F" fill-rule="nonzero" d="M61.486 18.306c0 .86.777 1.558 1.736 1.559s1.736-.697 1.737-1.557c0-.86-.777-1.558-1.736-1.558-.959-.001-1.737.696-1.737 1.556m-.588-.058c0-1.888 1.25-2.648 3.035-2.647 1.669.001 3.006.892 3.006 2.651-.001 1.716-1.353 2.734-3.021 2.733-1.93-.001-3.02-.82-3.02-2.737"></path>
<path stroke="#2C2D2F" stroke-width="0.144" d="M61.486 18.306c0 .86.777 1.558 1.736 1.559s1.736-.697 1.737-1.557c0-.86-.777-1.558-1.736-1.558-.959-.001-1.737.696-1.737 1.556Zm-.588-.058c0-1.888 1.25-2.648 3.035-2.647 1.669.001 3.006.892 3.006 2.651-.001 1.716-1.353 2.734-3.021 2.733-1.93-.001-3.02-.82-3.02-2.737Z"></path>
</g>
</svg>